<svg width="44" height="60" viewBox="0 0 44 60" fill="none" xmlns="http://www.w3.org/2000/svg">
<path d="M6.3871 9.3913V38.8174C6.3871 39.0261 14.9032 45.913 20.3441 50.2957L22.4731 52.0696L25.1936 49.6696C30.2796 45.1826 37.6129 38.9217 37.6129 38.8174V9.3913C37.6129 8.34783 37.1398 7.4087 36.4301 6.78261C35.6021 6.05217 34.5376 5.63478 33.3548 5.63478H10.6452C9.46237 5.63478 8.39785 6.05217 7.68817 6.78261C6.86021 7.4087 6.3871 8.34783 6.3871 9.3913ZM22.5914 13.0435L25.7849 18.7826C25.9032 18.887 26.0215 18.9913 26.2581 18.9913L33.2366 19.9304C33.5914 20.0348 33.7097 20.1391 33.828 20.3478C33.828 20.5565 33.828 20.7652 33.5914 20.8696L28.5054 25.3565C28.3871 25.4609 28.2688 25.6696 28.3871 25.7739L29.5699 32.0348C29.5699 32.2435 29.4516 32.4522 29.3333 32.5565C29.0968 32.6609 28.8602 32.6609 28.6237 32.5565L22.3548 29.7391C22.1183 29.6348 21.8817 29.6348 21.7634 29.7391L15.3763 32.5565C15.1398 32.6609 14.9032 32.6609 14.6667 32.5565C14.5484 32.4522 14.4301 32.2435 14.4301 32.0348L15.6129 25.7739C15.7312 25.6696 15.6129 25.4609 15.4946 25.3565L10.4086 20.8696C10.172 20.7652 10.172 20.5565 10.172 20.3478C10.2903 20.1391 10.5269 20.0348 10.7634 19.9304L17.7419 18.9913C17.9785 18.9913 18.2151 18.887 18.2151 18.7826L21.4086 13.0435C21.5269 12.9391 21.7634 12.8348 22 12.8348C22.2366 12.8348 22.4731 12.9391 22.5914 13.0435ZM0 38.8174V9.3913C0 6.78261 1.1828 4.48696 3.07527 2.71304C5.08602 1.04348 7.68817 0 10.6452 0H33.3548C36.3118 0 38.914 1.04348 40.9247 2.71304C42.8172 4.48696 44 6.78261 44 9.3913V38.8174C44 41.0087 35.4839 48.4174 29.6882 53.6348C27.3226 55.6174 25.4301 57.287 24.8387 57.8087L22.5914 60L20.2258 57.913C19.5161 57.287 17.9785 56.0348 15.9677 54.4696C9.8172 49.4609 0 41.5304 0 38.8174H0Z" fill="#5AC4FF"/>
</svg>
