<svg width="60" height="60" viewBox="0 0 60 60" fill="none" xmlns="http://www.w3.org/2000/svg">
<path d="M29.9105 7.85288C32.5951 6.0408 35.2796 4.43006 37.9642 3.22201C40.6488 2.01395 43.3333 1.00724 45.8389 0.403214C49.2394 -0.200812 51.9239 -0.200812 54.0716 0.604557C56.3982 1.40993 58.009 3.02066 59.0828 5.23543C59.9776 7.24885 60.1566 9.66496 59.7987 12.4838C59.0828 16.3093 57.1141 20.9401 53.7136 26.175C53.1767 26.9804 52.6398 27.7858 51.9239 28.5911C52.6398 29.5978 53.1767 30.4032 53.7136 31.2086C57.1141 36.4435 59.0828 41.0744 59.7987 44.8999C60.1566 47.5173 59.9776 50.1348 59.0828 52.1482C58.009 54.1616 56.3982 55.7723 54.0716 56.5777C52.2819 57.3831 50.1342 57.5844 47.4497 57.1817C47.2707 57.3831 47.2707 57.3831 47.0917 57.5844C45.8389 58.9938 44.0492 60.0005 42.2595 60.0005C40.2908 60.0005 38.6801 58.9938 37.4273 57.5844C36.1745 56.175 35.2796 54.3629 35.2796 52.1482C35.2796 49.9334 36.1745 48.1213 37.4273 46.7119C38.6801 45.3025 40.2908 44.4972 42.2595 44.4972C44.0492 44.4972 45.8389 45.3025 47.0917 46.7119C47.9866 47.7187 48.7025 49.128 48.8814 50.7388C50.3132 50.7388 51.387 50.7388 52.2819 50.3361C52.9978 50.1348 53.5347 49.7321 53.7136 49.128C54.0716 48.3227 54.2506 47.316 53.8926 45.9066C53.5347 43.0878 51.9239 39.4636 49.0604 35.2354C48.7025 34.6314 48.3445 34.2287 47.9866 33.6247C44.2282 38.0542 39.7539 42.2824 35.2796 45.7052C28.1208 51.3428 20.4251 55.571 14.1611 56.7791C10.7606 57.5844 8.07607 57.3831 5.92841 56.5777C3.60179 55.7723 1.99105 54.1616 0.917227 52.1482C0.0223728 50.1348 -0.156598 47.5173 0.201344 44.8999C0.738257 41.0744 2.70694 36.4435 6.10738 31.2086C6.82327 30.4032 7.36018 29.5978 7.89709 28.5911C7.36018 27.7858 6.82327 26.9804 6.10738 26.175C2.70694 20.9401 0.738257 16.3093 0.201344 12.4838C-0.156598 9.66496 0.0223728 7.24885 0.917227 5.23543C1.99105 3.02066 3.60179 1.40993 5.92841 0.604557C8.07607 -0.200812 10.7606 -0.200812 14.1611 0.403214C18.9933 1.40993 24.3624 4.02737 29.9105 7.85288ZM20.0671 30.8059C21.6779 30.8059 23.2886 31.6113 24.3624 32.8193C25.4362 34.0274 26.1521 35.8395 26.1521 37.6515C26.1521 39.665 25.4362 41.2757 24.3624 42.4837C23.2886 43.8931 21.6779 44.4972 20.0671 44.4972C18.4564 44.4972 16.8456 43.8931 15.7718 42.4837C14.698 41.2757 13.9821 39.665 13.9821 37.6515C13.9821 37.0475 13.9821 36.6448 14.1611 36.0408C13.2662 35.2354 12.5503 34.4301 11.8345 33.6247C11.4765 34.2287 11.1186 34.6314 10.9396 35.2354C8.07607 39.4636 6.46533 43.0878 5.92841 45.9066C5.74944 47.316 5.92841 48.3227 6.10738 49.128C6.46533 49.7321 7.00224 50.1348 7.71812 50.3361C8.97092 50.7388 10.7606 50.9401 13.0873 50.3361C18.4564 49.128 25.2573 45.5039 31.8792 40.4703C36.3535 37.0475 40.4698 33.0207 44.2282 28.5911C40.4698 24.3629 36.3535 20.3361 31.8792 16.9133C25.2573 11.8797 18.4564 8.05422 13.0873 7.04751C10.7606 6.44348 8.97092 6.44348 7.71812 6.84617C7.00224 7.24885 6.46533 7.65154 6.10738 8.25556C5.92841 8.85959 5.74944 10.0676 5.92841 11.2757C6.46533 14.0945 8.07607 17.92 10.9396 22.1482C11.1186 22.7522 11.4765 23.1549 11.8345 23.7589C12.7293 22.7522 13.4452 21.9468 14.34 20.9401C14.34 20.5374 14.1611 19.9334 14.1611 19.5307C14.1611 17.5173 14.877 15.7052 16.1298 14.4972C17.2036 13.0878 18.8143 12.2824 20.604 12.2824C22.2148 12.2824 23.8255 13.0878 25.0783 14.4972C26.1521 15.7052 26.868 17.5173 26.868 19.5307C26.868 21.3428 26.1521 23.1549 25.0783 24.5643C23.8255 25.7723 22.2148 26.5777 20.604 26.5777C19.7092 26.5777 18.8143 26.3764 18.0984 25.9737C17.3826 26.9804 16.4877 27.7858 15.7718 28.5911C16.4877 29.5978 17.2036 30.4032 18.0984 31.2086C18.6353 31.0072 19.3512 30.8059 20.0671 30.8059ZM21.1409 36.6448C20.783 36.2421 20.4251 36.0408 20.0671 36.0408C19.7092 36.0408 19.3512 36.2421 18.9933 36.6448C18.8143 36.8462 18.6353 37.2489 18.6353 37.6515C18.6353 38.0542 18.8143 38.4569 18.9933 38.8596C19.3512 39.0609 19.7092 39.2623 20.0671 39.2623C20.4251 39.2623 20.783 39.0609 21.1409 38.8596C21.3199 38.4569 21.4989 38.0542 21.4989 37.6515C21.4989 37.2489 21.3199 36.8462 21.1409 36.6448ZM43.6913 50.3361C43.3333 49.9334 42.7964 49.7321 42.2595 49.7321C41.5436 49.7321 41.0067 49.9334 40.6488 50.3361C40.2908 50.9401 40.1119 51.5442 40.1119 52.1482C40.1119 52.7522 40.2908 53.5576 40.6488 53.9603C41.0067 54.3629 41.5436 54.5643 42.2595 54.5643C42.7964 54.5643 43.3333 54.3629 43.6913 53.9603C44.2282 53.5576 44.4072 52.7522 44.4072 52.1482C44.4072 51.5442 44.2282 50.9401 43.6913 50.3361ZM21.6779 18.1213C21.4989 17.92 20.962 17.7187 20.604 17.7187C20.0671 17.7187 19.7092 17.92 19.3512 18.1213C19.1723 18.524 18.9933 18.9267 18.9933 19.5307C18.9933 19.9334 19.1723 20.5374 19.3512 20.7388C19.7092 21.1415 20.0671 21.3428 20.604 21.3428C20.962 21.3428 21.4989 21.1415 21.6779 20.7388C22.0358 20.5374 22.2148 19.9334 22.2148 19.5307C22.2148 18.9267 22.0358 18.524 21.6779 18.1213ZM47.9866 23.7589C48.3445 23.1549 48.7025 22.7522 49.0604 22.1482C51.9239 17.92 53.5347 14.0945 53.8926 11.2757C54.0716 10.0676 54.0716 8.85959 53.7136 8.25556C53.5347 7.65154 52.9978 7.24885 52.2819 6.84617C51.0291 6.44348 49.2394 6.44348 46.9128 7.04751C44.9441 7.45019 42.6175 8.25556 40.1119 9.26227C38.6801 10.0676 37.0694 10.873 35.6376 11.8797C39.9329 15.3025 44.2282 19.3294 47.9866 23.7589Z" fill="#FFB865"/>
</svg>
