<svg width="66" height="66" viewBox="0 0 66 66" fill="none" xmlns="http://www.w3.org/2000/svg">
<path d="M33.9279 43.6184V57.3577C33.9279 58.2945 33.6186 59.2312 33.3093 60.168H38.8769C39.4955 60.168 40.1141 59.8557 40.7328 59.2312C41.0421 58.919 41.3514 57.9822 41.3514 57.3577V30.1914C41.3514 29.5669 41.0421 28.9424 40.7328 28.3179C40.1141 27.6934 39.4955 27.3811 38.8769 27.3811H21.8648C21.2462 27.3811 20.6276 27.6934 20.009 28.3179C19.3904 28.9424 19.081 29.5669 19.081 30.1914V35.1875H25.2673C27.7417 35.1875 29.9069 36.1243 31.4535 37.3733C32.6907 38.9346 33.9279 41.1204 33.9279 43.6184ZM47.2283 35.1875H57.4355C59.91 35.1875 61.7659 36.1243 63.3124 37.3733C64.859 38.9346 65.7869 41.1204 65.7869 43.6184V57.3577C65.7869 59.5435 64.859 61.7293 63.3124 63.2906C61.7659 64.8518 59.91 65.7886 57.4355 65.7886H38.8769H28.979H21.8648H8.5645C6.39932 65.7886 4.23415 64.8518 2.6876 63.2906C1.14105 61.7293 0.21312 59.5435 0.21312 57.3577V43.6184C0.21312 41.1204 1.14105 38.9346 2.6876 37.3733C4.23415 36.1243 6.39932 35.1875 8.5645 35.1875H13.5135V30.1914C13.5135 28.0056 14.4414 25.8198 15.9879 24.2586C17.5345 22.6973 19.6997 21.7605 21.8648 21.7605H28.051V3.64966C28.051 3.02515 28.3604 2.40064 28.6697 1.77612C28.979 1.46387 29.2883 0.839356 29.9069 0.5271C30.2162 0.214844 30.8348 0.214844 31.4535 0.214844C32.0721 0.214844 32.6907 0.214844 33 0.5271L46.6097 8.64576C47.2283 8.95801 47.5376 9.27027 47.8469 9.89478C48.1562 10.207 48.1562 10.8315 48.1562 11.4561C48.1562 12.0806 48.1562 12.7051 47.8469 13.0173C47.5376 13.6419 46.919 14.2664 46.3003 14.5786L32.6907 18.9502V21.7605H38.8769C41.0421 21.7605 43.2072 22.6973 44.7538 24.2586C46.3003 25.8198 47.2283 28.0056 47.2283 30.1914V35.1875ZM46.6097 60.168H57.4355C58.3634 60.168 58.9821 59.8557 59.2914 59.2312C59.91 58.919 60.2193 57.9822 60.2193 57.3577V43.6184C60.2193 42.6817 59.91 42.0572 59.2914 41.4326C58.9821 41.1204 58.3634 40.8081 57.4355 40.8081H47.2283V57.3577C47.2283 58.2945 46.919 59.2312 46.6097 60.168ZM32.6907 14.2664L41.97 11.1438L32.6907 5.5232V14.2664ZM14.1321 60.168C13.8228 59.2312 13.5135 58.2945 13.5135 57.3577V50.8003H19.081V57.3577C19.081 57.9822 19.3904 58.919 20.009 59.2312C20.6276 59.8557 21.2462 60.168 21.8648 60.168H25.2673C26.1952 60.168 26.8138 59.8557 27.4324 59.2312C27.7417 58.919 28.051 57.9822 28.051 57.3577V43.6184C28.051 42.6817 27.7417 42.0572 27.4324 41.4326C26.8138 41.1204 26.1952 40.8081 25.2673 40.8081H8.5645C7.94588 40.8081 7.01794 41.1204 6.70863 41.4326C6.09001 42.0572 5.7807 42.6817 5.7807 43.6184V57.3577C5.7807 57.9822 6.09001 58.919 6.70863 59.2312C7.01794 59.8557 7.94588 60.168 8.5645 60.168H14.1321Z" fill="#FB7C84"/>
</svg>
