<svg width="36" height="36" viewBox="0 0 36 36" fill="none" xmlns="http://www.w3.org/2000/svg">
<path fill-rule="evenodd" clip-rule="evenodd" d="M9.17474 10.0768C6.61051 11.2513 1.21484 12.4408 0.146105 7.80212C-0.922635 3.16344 4.13371 1.13895 6.79548 0.706544C12.483 0.0522405 24.7075 -1.32087 31.5343 3.3343C32.1087 3.78188 32.9587 4.57504 33.6636 5.60431C37.5959 12.0355 35.5874 23.6915 34.6265 29.2679L34.5718 29.586C33.9942 32.1939 31.6772 37.0846 27.0297 35.784C22.3821 34.4835 23.8701 29.2134 25.1951 26.7409C26.4181 24.404 27.5356 18.7103 26.8258 18.0027C26.5201 17.6978 24.7874 16.0721 19.0799 25.3184C14.8483 32.1735 9.70648 30.5989 7.19112 28.633L6.61 28.0615C4.62777 25.6404 2.78459 20.1658 10.2896 16.1653C19.9186 11.0326 18.369 9.24392 18.0774 8.92735C17.4006 8.19244 11.5969 8.9954 9.17474 10.0768Z" fill="#883CDA"/>
</svg>
