<svg width="29" height="29" viewBox="0 0 29 29" fill="none" xmlns="http://www.w3.org/2000/svg">
<path fill-rule="evenodd" clip-rule="evenodd" d="M7.39077 8.1174C5.32513 9.06358 0.978625 10.0218 0.117696 6.28504C-0.743234 2.54833 3.32994 0.91749 5.47413 0.56916C10.0557 0.0420826 19.9033 -1.06403 25.4026 2.68597C25.8654 3.04652 26.55 3.68545 27.1179 4.51458C30.2856 9.69527 28.6676 19.0848 27.8936 23.5769L27.8495 23.8331C27.3842 25.934 25.5178 29.8737 21.7739 28.826C18.03 27.7783 19.2287 23.533 20.296 21.5413C21.2813 19.6587 22.1815 15.0722 21.6097 14.5021C21.3634 14.2566 19.9676 12.947 15.3699 20.3954C11.9612 25.9176 7.81911 24.6491 5.79285 23.0655L5.32472 22.6051C3.72793 20.6548 2.24314 16.2447 8.28884 13.022C16.0455 8.88736 14.7972 7.44649 14.5624 7.19147C14.0172 6.59947 9.34198 7.2463 7.39077 8.1174Z" fill="white"/>
</svg>
