<svg width="60" height="61" viewBox="0 0 60 61" fill="none" xmlns="http://www.w3.org/2000/svg">
<path fill-rule="evenodd" clip-rule="evenodd" d="M54.8718 47.2641V12.7358C54.8718 8.82816 52.0018 5.66037 48.4615 5.66037C44.9213 5.66037 42.0513 8.82816 42.0513 12.7358V47.2641C42.0513 51.1717 44.9213 54.3395 48.4615 54.3395C52.0018 54.3395 54.8718 51.1717 54.8718 47.2641ZM48.4615 0C42.089 0 36.9231 5.70203 36.9231 12.7358V47.2641C36.9231 54.2979 42.089 59.9999 48.4615 59.9999C54.8341 59.9999 60 54.2979 60 47.2641V12.7358C60 5.70202 54.8341 0 48.4615 0Z" fill="#6ED6A4"/>
<path fill-rule="evenodd" clip-rule="evenodd" d="M36.4103 47.2659V27.4546C36.4103 23.5469 33.5403 20.3791 30 20.3791C26.4597 20.3791 23.5898 23.5469 23.5898 27.4546V47.2659C23.5898 51.1735 26.4597 54.3413 30 54.3413C33.5403 54.3413 36.4103 51.1735 36.4103 47.2659ZM30 14.7188C23.6275 14.7188 18.4615 20.4208 18.4615 27.4546V47.2659C18.4615 54.2997 23.6275 60.0017 30 60.0017C36.3725 60.0017 41.5385 54.2997 41.5385 47.2659V27.4546C41.5385 20.4208 36.3725 14.7188 30 14.7188Z" fill="#6ED6A4"/>
<path fill-rule="evenodd" clip-rule="evenodd" d="M17.9487 47.2662V39.9077C17.9487 36 15.0787 32.8322 11.5385 32.8322C7.99818 32.8322 5.12821 36 5.12821 39.9077V47.2662C5.12821 51.1738 7.99818 54.3416 11.5385 54.3416C15.0787 54.3416 17.9487 51.1738 17.9487 47.2662ZM11.5385 27.1719C5.16595 27.1719 0 32.8739 0 39.9077V47.2662C0 54.3 5.16595 60.002 11.5385 60.002C17.911 60.002 23.0769 54.3 23.0769 47.2662V39.9077C23.0769 32.8739 17.911 27.1719 11.5385 27.1719Z" fill="#6ED6A4"/>
</svg>
