<svg width="60" height="60" viewBox="0 0 60 60" fill="none" xmlns="http://www.w3.org/2000/svg">
<path d="M28.2348 16.1113C28.2348 22.2479 23.6071 27.2225 17.8986 27.2225C12.1901 27.2225 7.5625 22.2479 7.5625 16.1113C7.5625 9.97468 12.1901 5 17.8986 5C23.6071 5 28.2348 9.97468 28.2348 16.1113ZM10.9879 16.1113C10.9879 20.2142 14.0819 23.5402 17.8986 23.5402C21.7153 23.5402 24.8093 20.2142 24.8093 16.1113C24.8093 12.0084 21.7153 8.68229 17.8986 8.68229C14.0819 8.68229 10.9879 12.0084 10.9879 16.1113Z" fill="#D4EE47"/>
<path d="M35.7983 40.0665C35.7983 51.0748 27.7846 59.9987 17.8991 59.9987C8.01372 59.9987 0 51.0748 0 40.0665C0 29.0583 8.01372 31.2964 17.8991 31.2964C27.7846 31.2964 35.7983 29.0583 35.7983 40.0665ZM4.66398 40.0665C4.66398 48.2063 10.5896 54.805 17.8991 54.805C25.2087 54.805 31.1343 48.2063 31.1343 40.0665C31.1343 31.9267 25.2087 36.4901 17.8991 36.4901C10.5896 36.4901 4.66398 31.9267 4.66398 40.0665Z" fill="#D4EE47"/>
<path d="M52.4369 11.3891C52.4369 17.6791 47.8093 22.7781 42.1008 22.7781C36.3923 22.7781 31.7646 17.6791 31.7646 11.3891C31.7646 5.09905 36.3923 0 42.1008 0C47.8093 0 52.4369 5.09905 52.4369 11.3891ZM35.1901 11.3891C35.1901 15.5945 38.2841 19.0038 42.1008 19.0038C45.9175 19.0038 49.0115 15.5945 49.0115 11.3891C49.0115 7.18356 45.9175 3.77434 42.1008 3.77434C38.2841 3.77434 35.1901 7.18356 35.1901 11.3891Z" fill="#D4EE47"/>
<path d="M41.8491 55.0017C51.8737 55.0017 60.0003 46.2494 60.0003 35.4529C60.0003 24.6564 51.8737 26.8514 41.8491 26.8514C38.5429 26.8514 35.4432 26.6126 32.7734 26.6799C34.5886 27.5613 34.7062 29.9163 34.5381 30.9836C36.6415 31.3529 39.1524 31.9452 41.8491 31.9452C49.2616 31.9452 55.2706 27.4696 55.2706 35.4529C55.2706 43.4361 49.2616 49.9079 41.8491 49.9079C39.8712 49.9079 37.9933 49.4471 36.3028 48.6199C35.7986 49.7557 34.5886 52.2158 33.7818 52.9697C36.212 54.2703 38.9512 55.0017 41.8491 55.0017Z" fill="#D4EE47"/>
</svg>
